<?xml version="1.0" encoding="UTF-8" standalone="no"?><!DOCTYPE svg PUBLIC "-//W3C//DTD SVG 1.1//EN" "http://www.w3.org/Graphics/SVG/1.1/DTD/svg11.dtd"><svg width="100%" height="100%" viewBox="0 0 548 430" version="1.1" xmlns="http://www.w3.org/2000/svg" xmlns:xlink="http://www.w3.org/1999/xlink" xml:space="preserve" xmlns:serif="http://www.serif.com/" style="fill-rule:evenodd;clip-rule:evenodd;stroke-linejoin:round;stroke-miterlimit:2;"><circle cx="264.713" cy="214.73" r="201.331" style="fill:#0368e1;"/><g><path d="M396.331,174.268c1.213,0.765 5.091,1.556 7.253,2.849c14.876,8.757 15.087,32.548 14.19,47.926c-0.633,10.814 -3.218,24.662 -12.766,31.177c-2.4,1.635 -9.232,3.772 -10.313,5.012c-1.081,1.24 -2.796,9.021 -3.798,11.526c-10.92,26.904 -27.88,34.949 -53.201,45.13c-23.079,9.258 -46.712,17.382 -70.082,26.165c-8.44,3.165 -18.332,8.52 -26.825,10.814c-3.139,0.844 -8.414,2.136 -9.97,-1.477c-2.005,-4.642 0.739,-27.985 -1.292,-29.41c-1.134,-0.791 -7.227,-0.132 -9.364,-0.396c-33.208,-4.062 -67.761,-15.879 -81.345,-49.06c-1.002,-2.427 -3.587,-12.687 -4.352,-13.452c-0.633,-0.633 -7.253,-2.717 -9.416,-4.167c-14.27,-9.706 -14.19,-31.704 -13.452,-47.266c0.607,-12.476 2.611,-26.904 14.744,-33.366c1.609,-0.87 7.491,-2.611 8.098,-3.403c0.818,-1.029 1.899,-7.016 2.638,-8.862c14.692,-37.613 43.31,-48.401 80.975,-54.309c2.849,-0.448 7.702,-0.185 10.234,-0.923c0.87,-0.264 5.645,-4.431 7.227,-5.328c6.752,-3.772 14.243,-4.247 21.523,-6.357c0.607,-0.844 1.319,-15.404 0.87,-16.986c-0.369,-1.266 -6.357,-5.486 -7.887,-7.438c-7.122,-9.126 -2.347,-23.449 8.572,-27.036c18.226,-5.987 30.939,16.116 18.305,29.462c-1.635,1.714 -6.62,4.194 -6.884,4.985c-0.607,1.794 0.87,16.195 1.952,17.356c7.755,2.031 15.641,2.427 22.552,6.726c1.477,0.923 4.906,4.352 5.829,4.616c2.532,0.739 7.966,0.448 10.946,0.897c31.309,4.827 63.672,16.01 77.968,46.871c1.688,3.666 4.51,16.142 7.016,17.725l0.053,0Zm-140.507,-34.474c-23.871,0.765 -65.07,2.374 -81.45,21.734c-17.567,20.758 -17.54,85.433 -2.084,107.431c10.234,14.56 27.774,18.041 44.101,20.732c32.575,5.381 100.415,7.649 128.796,-10.366c14.665,-9.311 19.439,-24.583 21.655,-41.094c2.954,-21.892 2.295,-63.804 -15.325,-79.498c-20.732,-18.49 -68.842,-19.835 -95.693,-18.965l-0,0.026Z" style="fill:#f7fafc;fill-rule:nonzero;"/><path d="M255.824,139.795c26.851,-0.87 74.935,0.475 95.693,18.965c17.619,15.694 18.279,57.606 15.325,79.498c-2.216,16.512 -7.016,31.783 -21.655,41.094c-28.381,18.015 -96.221,15.72 -128.796,10.366c-16.327,-2.69 -33.867,-6.172 -44.101,-20.732c-15.457,-21.998 -15.483,-86.646 2.084,-107.431c16.38,-19.36 57.58,-20.969 81.45,-21.734l0,-0.026Zm-38.351,44.629c-7.939,0.897 -13.346,10.208 -15.536,17.224c-2.875,9.284 -2.822,19.044 0.317,28.275c8.783,25.796 30.992,19.809 36.215,-4.299c2.532,-11.685 0.396,-28.671 -8.599,-37.27c-3.745,-3.561 -7.227,-4.537 -12.397,-3.956l0,0.026Zm81.292,4.22c-12.397,12.819 -12.291,45.605 3.323,55.812c15.615,10.208 26.324,-13.979 27.088,-26.429c0.818,-13.056 -5.75,-35.898 -22.473,-33.63c-2.981,0.396 -5.882,2.11 -7.939,4.247Z" style="fill:#0368e1;fill-rule:nonzero;"/><path d="M217.473,184.423c5.17,-0.58 8.651,0.369 12.397,3.956c8.994,8.572 11.131,25.585 8.599,37.27c-5.223,24.108 -27.431,30.095 -36.215,4.299c-3.139,-9.232 -3.218,-18.991 -0.317,-28.275c2.189,-7.016 7.596,-16.353 15.536,-17.224l0,-0.026Zm-3.112,16.037c-5.618,6.673 -5.46,26.535 2.347,31.731c7.992,5.354 12.001,-9.812 12.133,-15.536c0.132,-5.724 -1.503,-16.643 -7.755,-18.833c-2.189,-0.765 -5.381,1.055 -6.726,2.638Z" style="fill:#eaf4fb;fill-rule:nonzero;"/><path d="M298.765,188.644c2.057,-2.136 4.985,-3.851 7.939,-4.247c16.723,-2.268 23.264,20.574 22.473,33.63c-0.765,12.423 -10.867,37.032 -27.088,26.429c-16.221,-10.603 -15.72,-42.993 -3.323,-55.812Zm6.225,42.809c1.556,1.556 5.143,2.11 7.174,0.923c8.572,-4.985 8.862,-33.234 -2.295,-34.79c-4.642,-0.659 -8.678,7.702 -9.179,11.447c-0.369,2.69 -0.422,9.812 0,12.45c0.237,1.503 3.376,9.021 4.326,9.97l-0.026,0Z" style="fill:#eaf4fb;fill-rule:nonzero;"/><path d="M214.36,200.46c1.345,-1.583 4.537,-3.429 6.726,-2.638c6.225,2.216 7.887,13.109 7.755,18.833c-0.132,5.75 -4.141,20.89 -12.133,15.536c-7.781,-5.223 -7.966,-25.084 -2.347,-31.731Z" style="fill:#0f6edd;fill-rule:nonzero;"/><path d="M304.989,231.452c-0.95,-0.95 -4.115,-8.467 -4.326,-9.97c-0.396,-2.638 -0.343,-9.759 0,-12.45c0.501,-3.745 4.537,-12.107 9.179,-11.447c11.157,1.556 10.893,29.779 2.295,34.79c-2.031,1.187 -5.592,0.633 -7.174,-0.923l0.026,0Z" style="fill:#0e6dde;fill-rule:nonzero;"/></g></svg>