<?xml version="1.0" encoding="UTF-8"?>
<svg id="Capa_1" xmlns="http://www.w3.org/2000/svg" version="1.1" viewBox="0 0 207.6 162.83">
  <!-- Generator: Adobe Illustrator 29.8.3, SVG Export Plug-In . SVG Version: 2.1.1 Build 3)  -->
  <defs>
    <style>
      .st0 {
        fill: #0e6dde;
      }

      .st1 {
        fill: #0f6edd;
      }

      .st2 {
        fill: #eaf4fb;
      }

      .st3 {
        fill: #f7fafc;
      }

      .st4 {
        fill: #0368e1;
      }
    </style>
  </defs>
  <circle class="st4" cx="100.36" cy="81.41" r="76.33"/>
  <g>
    <path class="st3" d="M150.26,66.07c.46.29,1.93.59,2.75,1.08,5.64,3.32,5.72,12.34,5.38,18.17-.24,4.1-1.22,9.35-4.84,11.82-.91.62-3.5,1.43-3.91,1.9s-1.06,3.42-1.44,4.37c-4.14,10.2-10.57,13.25-20.17,17.11-8.75,3.51-17.71,6.59-26.57,9.92-3.2,1.2-6.95,3.23-10.17,4.1-1.19.32-3.19.81-3.78-.56-.76-1.76.28-10.61-.49-11.15-.43-.3-2.74-.05-3.55-.15-12.59-1.54-25.69-6.02-30.84-18.6-.38-.92-1.36-4.81-1.65-5.1-.24-.24-2.75-1.03-3.57-1.58-5.41-3.68-5.38-12.02-5.1-17.92.23-4.73.99-10.2,5.59-12.65.61-.33,2.84-.99,3.07-1.29.31-.39.72-2.66,1-3.36,5.57-14.26,16.42-18.35,30.7-20.59,1.08-.17,2.92-.07,3.88-.35.33-.1,2.14-1.68,2.74-2.02,2.56-1.43,5.4-1.61,8.16-2.41.23-.32.5-5.84.33-6.44-.14-.48-2.41-2.08-2.99-2.82-2.7-3.46-.89-8.89,3.25-10.25,6.91-2.27,11.73,6.11,6.94,11.17-.62.65-2.51,1.59-2.61,1.89-.23.68.33,6.14.74,6.58,2.94.77,5.93.92,8.55,2.55.56.35,1.86,1.65,2.21,1.75.96.28,3.02.17,4.15.34,11.87,1.83,24.14,6.07,29.56,17.77.64,1.39,1.71,6.12,2.66,6.72ZM96.99,53c-9.05.29-24.67.9-30.88,8.24-6.66,7.87-6.65,32.39-.79,40.73,3.88,5.52,10.53,6.84,16.72,7.86,12.35,2.04,38.07,2.9,48.83-3.93,5.56-3.53,7.37-9.32,8.21-15.58,1.12-8.3.87-24.19-5.81-30.14-7.86-7.01-26.1-7.52-36.28-7.19Z"/>
    <path class="st4" d="M96.99,53c10.18-.33,28.41.18,36.28,7.19,6.68,5.95,6.93,21.84,5.81,30.14-.84,6.26-2.66,12.05-8.21,15.58-10.76,6.83-36.48,5.96-48.83,3.93-6.19-1.02-12.84-2.34-16.72-7.86-5.86-8.34-5.87-32.85.79-40.73,6.21-7.34,21.83-7.95,30.88-8.24ZM82.45,69.92c-3.01.34-5.06,3.87-5.89,6.53-1.09,3.52-1.07,7.22.12,10.72,3.33,9.78,11.75,7.51,13.73-1.63.96-4.43.15-10.87-3.26-14.13-1.42-1.35-2.74-1.72-4.7-1.5ZM113.27,71.52c-4.7,4.86-4.66,17.29,1.26,21.16s9.98-5.3,10.27-10.02c.31-4.95-2.18-13.61-8.52-12.75-1.13.15-2.23.8-3.01,1.61Z"/>
    <path class="st2" d="M82.45,69.92c1.96-.22,3.28.14,4.7,1.5,3.41,3.25,4.22,9.7,3.26,14.13-1.98,9.14-10.4,11.41-13.73,1.63-1.19-3.5-1.22-7.2-.12-10.72.83-2.66,2.88-6.2,5.89-6.53ZM81.27,76c-2.13,2.53-2.07,10.06.89,12.03,3.03,2.03,4.55-3.72,4.6-5.89.05-2.17-.57-6.31-2.94-7.14-.83-.29-2.04.4-2.55,1Z"/>
    <path class="st2" d="M113.27,71.52c.78-.81,1.89-1.46,3.01-1.61,6.34-.86,8.82,7.8,8.52,12.75-.29,4.71-4.12,14.04-10.27,10.02s-5.96-16.3-1.26-21.16ZM115.63,87.75c.59.59,1.95.8,2.72.35,3.25-1.89,3.36-12.6-.87-13.19-1.76-.25-3.29,2.92-3.48,4.34-.14,1.02-.16,3.72,0,4.72.09.57,1.28,3.42,1.64,3.78Z"/>
    <path class="st1" d="M81.27,76c.51-.6,1.72-1.3,2.55-1,2.36.84,2.99,4.97,2.94,7.14-.05,2.18-1.57,7.92-4.6,5.89-2.95-1.98-3.02-9.51-.89-12.03Z"/>
    <path class="st0" d="M115.63,87.75c-.36-.36-1.56-3.21-1.64-3.78-.15-1-.13-3.7,0-4.72.19-1.42,1.72-4.59,3.48-4.34,4.23.59,4.13,11.29.87,13.19-.77.45-2.12.24-2.72-.35Z"/>
  </g>
</svg>